<?xml version="1.0" encoding="UTF-8"?>
<svg xmlns="http://www.w3.org/2000/svg" viewBox="0 0 1676.09 1148.09">
  <defs>
    <style>
      .cls-1 {
        fill: #fff;
      }

      .cls-2 {
        fill: #fcad6f;
      }

      .cls-3 {
        fill: #693931;
      }
    </style>
  </defs>
  <g id="Layer_8">
    <path class="cls-3" d="M437.37,494.06c.54,3.86,3.23,6.01,5.89,8.15,5.5,4.43,11.07,8.78,16.55,13.24,12.68,10.32,20.43,23.87,25.4,39.18,1.53,4.7,2.07,9.6,1.78,14.53-.84,14.31-5.36,27.43-13.86,38.94-6.92,9.39-16.71,14.72-28.18,15.82-24.41,2.36-44.75-5.45-59.14-26.01-5.69-8.13-8.72-17.14-6-27.28,1.94-7.23,5.66-13.34,11.36-18.18,4.72-4.01,10.08-6.38,16.44-6.07,1.31.06,3.09.87,3.76-1.07.51-1.45-.88-2.2-1.65-3.13-3.13-3.77-6.37-7.45-9.37-11.32-5.03-6.47-9.62-13.24-11.7-21.33-.67-2.6-1.87-3.17-4.27-1.99-4.74,2.33-9.63,4.31-14.86,5.21-9.83,1.71-19.23.91-27.39-5.52-1.63-1.28-3.16-1.48-5.04-1.16-4.49.76-8.86,1.87-13.11,3.55-7.73,3.06-15.82,3.9-24.06,3.63-1.63-.05-3.26-.28-4.86-.58-10.51-2.01-14.44-7.82-11.09-18.04,3.16-9.64,4.31-19.32,4.31-29.41,0-15.18,6.48-27.35,19.16-35.88,6.34-4.27,13.67-5.69,21.18-6.25,1.45-.11,2.9-.14,4.35-.1,2.35.06,3.13-1,2.98-3.33-.36-5.68.64-11.21,2.34-16.62,4.65-14.72,14.46-24.59,28.87-29.65,11.25-3.95,23-5.27,34.89-4.27,3.17.27,4.98-.51,6.71-3.13,6.69-10.15,15.32-18.35,25.76-24.61,15.53-9.3,34.09-5.77,45.29,8.62,3.52,4.53,4.81,9.68,4.25,15.34-1.03,10.41-5.75,19-13.12,26.22-2.44,2.39-5.16,4.51-7.63,6.64-.12,1.56.91,2.07,1.78,2.64,5.36,3.58,6.8,8.71,5.76,14.75-1.53,8.87-4.27,17.26-10.17,24.33-.68.82-1.59,1.54-1.44,2.82,1.35,1.3,3.22,1.57,4.87,2.28,8.91,3.85,16.14,9.75,21.46,17.84,10.8,16.42,4.23,37.29-13.99,44.76-5.07,2.08-10.22,1.95-15.51,1.02-1.9-.33-2.54-1.89-3.87-2.73-5.35-3.41-10.46-7.15-14.85-11.85ZM436.74,612.77c14.71-.16,25.44-6.05,31.63-19.43,2.22-4.8,4.03-9.72,5.43-14.8,1.92-6.97,2.21-13.93-.07-20.91-4.33-13.22-11.22-24.74-22.08-33.66-4.77-3.91-9.59-7.75-14.37-11.65-4.52-3.7-8.7-7.67-10.9-13.32-2.6-6.67-1.07-13.68,3.79-16.63,5.03-3.05,11.73-1.35,16.3,4.45,2.4,3.04,5.44,5.27,8.25,7.82,4.08,3.71,12.06,3.1,16.2.05,8.43-6.22,10.51-16.74,4.64-25.48-5.19-7.72-12.47-12.41-21.33-15.03-3.03-.89-4.9-.55-6.98,2.08-4.74,5.98-10.19,11.3-16.6,15.6-3.61,2.42-7.3,4.84-10.02,8.32-5.63,7.21-12.3,13.31-19.73,18.59-1.79,1.27-2.15,2.76-1.65,4.7,1.18,4.59,2.75,9.01,5.38,13.02,9.06,13.81,20.18,25.65,33.89,34.9,5.35,3.61,8.39,8.29,9.13,14.68,1.13,9.74-6.5,15.61-15.59,11.84-3.23-1.34-5.95-3.44-8.4-5.91-3.32-3.36-6.52-6.84-10.01-10-5.56-5.03-9.93-4.95-15.29.15-6.69,6.37-10.86,15.6-4.37,26.52,9.74,16.37,24.62,23.32,42.73,24.1ZM362,506.47c4.03.22,8.11-.63,12.04-2.12,15.18-5.77,28.57-14.18,38.93-26.91,3.23-3.97,6.88-7.38,11.16-10.26,6.95-4.68,13.13-10.24,18.4-16.84,3.62-4.53,7.62-8.76,11.6-12.98,6.53-6.92,9.46-15.41,10.54-24.57.68-5.78-6.64-11.03-11.95-8.61-8.27,3.77-16.24,8.1-22.72,14.7-2.29,2.33-4.64,4.6-7.1,6.75-2.25,1.96-3.97,4.14-4.81,7.07-1.11,3.89-3.3,7.26-5.78,10.41-6.01,7.63-13.47,13.69-21.3,19.29-3.54,2.53-7.25,4.92-11.42,6.27-4.81,1.56-9.32,3.29-13.18,6.91-3.31,3.11-8.04,4.1-12.35,5.49-5.88,1.9-8.67,6.29-9.98,11.89-1.14,4.89.26,8.03,4.6,10.52,4.04,2.32,8.49,3.09,13.32,2.98ZM362.15,469.89c0-.54.07-.77-.01-.89-.32-.43-.66-.85-1.04-1.23-5.18-5.01-5.23-10.84-2.58-17,.78-1.81,2-3.44,3.07-5.12,2.31-3.6,2.33-3.93-1.31-6.37-6.7-4.5-14.02-7.9-21.97-9.06-23.84-3.48-39.72,9.76-42.85,30.51-.56,3.73-.45,7.6-.34,11.4.18,6.61-.73,13-3,19.22-.87,2.38-1.59,4.83-2.08,7.31-.74,3.75.23,5.32,3.94,6.53,1.7.56,3.53.92,5.31,1.03,7.49.44,14.85-.23,21.93-2.95,3.9-1.49,7.79-3.02,11.96-3.54,2.39-.3,3.27-1.33,3.46-3.84.87-11.24,6.32-18.99,17.5-22.27,2.88-.85,5.84-1.77,8.01-3.74ZM419.7,418.92c1.07-.89,1.7-1.28,2.17-1.81,6.6-7.46,14.72-12.81,23.62-17.12,5.55-2.69,10.94-5.7,15.95-9.32,7.98-5.75,13.2-13.38,15.24-23.02.92-4.33.93-8.63-1.74-12.56-7.66-11.27-23.1-15.1-35.17-8.69-11.17,5.93-19.49,14.78-26.73,25.01-8.76,12.37-8.17,25.43-4.19,39,.36,1.22.76,2.62,2.27,2.75,3.77.33,6.21,2.67,8.58,5.75ZM391.18,375.34c-5.76.32-13.83,1.42-21.59,4.13-16.96,5.95-26.26,20.49-26.68,37.83-.13,5.19,1.3,7.16,6.09,9.04,5.92,2.33,11.66,4.99,16.66,9,1.65,1.33,3.01,1.77,4.6-.1,8.04-9.45,18.17-15.97,29.46-20.82,2.24-.96,3.09-2.24,2.29-4.61-.46-1.37-.73-2.8-1.03-4.22-1.56-7.5-2.37-15.02-.53-22.61,1.96-8.1,1.94-8.11-9.28-7.65ZM405.99,421.15c-3.23-.81-6.26.88-9.36,2.47-11.23,5.77-19.9,14.47-27.74,24.11-1.95,2.4-3.37,5.21-4.24,8.17-1.27,4.34.83,7.08,5.38,7.3,2.8.13,5.36-.8,7.87-1.88,5.21-2.25,9.83-5.48,14.29-8.91,6.35-4.89,12.23-10.3,16.48-17.21,1.83-2.97,3.06-6.2,3.44-9.68.41-3.76-.33-4.53-4.04-4.5-.54,0-1.09.07-2.08.14ZM434.85,565.11c-1.02-3.39-3.98-4.43-6.36-5.73,1.57,2.22,3.41,4.58,6.36,5.73ZM411.64,546.09"/>
    <path class="cls-3" d="M970.19,693c.63,4.08,3.4,6.43,6.27,8.63,6.06,4.63,12.04,9.35,17.83,14.32,12.26,10.53,19.67,24.05,24.28,39.27,1.59,5.27,1.82,10.74,1.21,16.2-1.48,13.25-5.87,25.49-13.89,36.16-7.28,9.68-17.57,14.85-29.4,15.75-22.62,1.71-41.85-5.39-56.07-23.83-2.34-3.04-4.23-6.34-5.76-9.85-6.66-15.28-.05-33.86,14.78-41.6,3.81-1.99,7.83-2.81,12.11-2.42,1.04.09,2.24.41,2.81-.92.54-1.29-.49-2.01-1.19-2.76-4.96-5.33-9.46-11.02-13.62-16.98-13.19-18.89-16.87-48.63,4.01-71.35,6.91-7.52,15.13-12.42,25.34-13.55,11.47-1.27,22.87-.91,33.96,2.67,10.72,3.46,19.38,9.85,25.6,19.29,10.93,16.58,4.13,37.9-14.43,44.97-6.77,2.58-13.36,2.4-19.6-2.24-4.96-3.68-10-7.2-14.23-11.75ZM970.49,812.1c12.05-.43,22.6-4.48,29.03-16.07,4.35-7.84,7.22-16.23,8.56-25.1.46-3.05.37-6.13-.28-9.2-2.49-11.81-7.9-22.15-15.71-31.25-6.19-7.21-13.76-12.88-21.31-18.54-2.63-1.97-5.11-4.09-7.21-6.6-3.73-4.46-5.99-9.5-5.37-15.49.73-7.03,7.01-11.2,13.75-9.12,3.04.94,5.6,2.68,7.41,5.28,2.44,3.51,5.84,5.9,9.19,8.39,4.1,3.04,8.4,3.02,12.78.9,10.21-4.95,13.52-16.55,7.52-26.23-4.6-7.42-11.25-12.26-19.46-14.91-8.93-2.89-18.1-3.37-27.42-2.49-7.38.7-13.62,3.55-18.7,8.91-15.03,15.86-16.5,36.09-6.07,54.2,8.33,14.47,20.13,26.13,33.91,35.57,5.68,3.89,8.94,8.79,9.55,15.6.83,9.23-6.56,14.78-15.18,11.34-3.6-1.43-6.62-3.71-9.34-6.44-3.46-3.47-6.79-7.08-10.45-10.33-4.68-4.16-8.87-4.05-13.55.16-9.71,8.73-11.36,18.56-3.54,30.02,9.92,14.54,24.29,20.58,41.87,21.42ZM961.87,759.05c2.13,2.87,3.57,4.69,6.63,5.95-1.32-3.32-3.28-4.54-6.63-5.95Z"/>
    <path class="cls-3" d="M802.92,492.93c.66,4.17,3.6,6.57,6.63,8.83,6.42,4.77,12.72,9.7,18.61,15.1,12.28,11.26,20.76,25.15,23.5,41.47,3.28,19.54-3.23,37.03-15.84,51.98-6.16,7.31-14.76,11.36-24.25,12.39-24.61,2.68-45.18-4.79-59.88-25.48-5.17-7.28-8.3-15.37-6.78-24.57,1.72-10.44,7.06-18.57,16.09-24.12,5.35-3.29,9.5-3.64,18.46-2.09.19-1.72-1.24-2.42-2.14-3.33-6.03-6.09-11.33-12.77-16.05-19.9-12.62-19.08-15.48-48.87,6.16-71.21,7.16-7.4,15.8-11.52,25.96-12.34,8.34-.67,16.7-.54,24.97,1.05,13.85,2.66,25.08,9.44,32.86,21.34,10.82,16.54,3.75,37.98-14.84,44.81-6.59,2.42-13.04,2.31-19.11-2.22-4.94-3.68-10.09-7.05-14.34-11.71ZM794.18,558.6l-.15-.12.12.14c1.8,2.25,3.46,4.65,7.33,6.38-1.95-3.97-4.54-5.29-7.3-6.41ZM801.79,451.08c-3.6-.08-7.76.15-11.86,1.13-5.06,1.21-9.39,3.6-13.15,7.28-17.05,16.67-16.93,39.69-5.64,57.3,3.33,5.2,7.08,10.12,11.32,14.62,6.73,7.14,13.74,13.98,22.07,19.31,6.61,4.24,9.42,10.41,8.6,18.13-.67,6.33-4.96,9.6-11.3,9.07-2.81-.24-5.25-1.41-7.56-2.86-3.41-2.15-6.29-4.93-8.87-7.99-2.12-2.51-4.41-4.82-6.99-6.84-5.09-4-9.2-3.89-14.14.41-7.98,6.93-9.8,16.57-5.14,26.05,9.58,19.49,34.01,27.98,52.73,24.03,6.77-1.43,12.82-4.54,16.95-10.14,7.28-9.86,11.33-21.02,11.88-33.35.13-2.91-.08-5.81-.88-8.64-3.19-11.38-8.54-21.57-16.82-30.1-6.6-6.8-14.08-12.57-21.52-18.38-3.33-2.6-6.33-5.52-8.25-9.3-2.08-4.09-3.56-8.36-2.1-13.09,1.79-5.82,6.77-8.66,12.68-7.37,3.6.79,6.3,2.82,8.38,5.66,2.41,3.29,5.57,5.67,8.81,8.02,4.3,3.1,8.75,3.12,13.31.85,9.69-4.83,13.06-16.02,7.52-25.45-4.18-7.11-10.14-12.23-18.04-14.99-6.94-2.42-14.09-3.39-22-3.36Z"/>
    <path class="cls-3" d="M547.13,557.29c1.59-3.96,1.72-7.94,1.75-11.93.07-11.43.27-22.87.12-34.3-.14-10.48,4.74-17.83,13.13-23.57,13.57-9.28,30.06-1.97,34.77,12.27,1.6,4.85,2.42,9.89,2.64,14.98.75,16.67,1.81,33.33.47,50.05-.72,9.03-.4,18.14-.51,27.21-.03,2.92-.52,5.76-.89,8.64-1.58,12.25-9.65,18.59-20.32,22.51-6.11,2.24-12.2,1.98-17.75-1.68-2.09-1.38-3.75-1.29-5.99-.39-10.14,4.08-20.54,4.19-30.96,1.15-10.9-3.19-18.58-10.26-23.74-20.25-4.23-8.18-6.38-16.98-7.28-26.06-1.69-17.01-1.76-34.04-.51-51.1.46-6.33,1.04-12.64,1.52-18.96,1.37-17.93,27.07-29.3,41.59-17.7,6.49,5.18,10.24,11.58,10.21,20.04-.04,12.71-.03,25.41.02,38.12.01,3.74.24,7.47,1.73,10.98ZM560.75,532.91c-.13,9.79.24,19.61-1.59,29.32-.78,4.14-2.01,8.14-4.82,11.4-4.94,5.73-12.65,4.9-16.27-1.75-1.68-3.07-2.29-6.48-2.8-9.9-.98-6.48-1.23-13-1.14-19.55.15-10.35.3-20.69.43-31.04.06-5.14-1.44-9.81-5.33-13.2-8.16-7.09-22.28-2.11-24.48,8.58-1.69,8.2-1.7,16.59-2,24.9-.47,13.06-.51,26.14,1,39.16.99,8.48,2.45,16.84,6.09,24.71,4.03,8.71,10.56,14.07,19.89,16.12,7.3,1.6,14.36,1.09,21.3-1.87,4.9-2.09,9.72-2.68,14.1,1.66,2.34,2.33,5.48,2.52,8.68,1.64,8.91-2.45,13.43-7.96,13.72-17.24.23-7.44-.15-14.91.33-22.32,1.23-18.67,1.68-37.33.79-56.02-.23-4.74-.85-9.39-2.09-13.96-1.09-4.04-3.72-6.5-7.75-7.6-7.57-2.06-16.68,4.08-17.52,11.93-.89,8.33-.41,16.69-.54,25.04Z"/>
    <path class="cls-3" d="M665.65,546.85c-2.81,1.85-3.04,4.36-3.42,6.78-2.39,15.44-3.9,30.97-4.18,46.58-.13,7.19-2.9,12.96-7.85,17.93-3.36,3.37-7.41,5.13-12.12,5.47-13.79.99-27.37-10.07-29.48-23.81-3.22-20.95-2.78-41.98-1.56-63.02.57-9.77,1.64-19.52,2.46-29.28.28-3.35,1.31-6.48,3.34-9.08,6.22-7.98,14.24-12.79,24.55-13.22,3.32-.14,6.64.31,9.29,2.45,2.09,1.68,3.97,1.71,6.45.94,12.67-3.89,24.9-3.11,36.93,3.01,11.99,6.1,19.04,15.8,21.15,28.63,3.45,21.01,3.87,42.28,2.85,63.51-.33,6.84-.03,13.72-1.61,20.56-2.07,8.98-7.64,14.15-16.01,16.78-5.91,1.86-11.86,1.45-17.67-.53-6.18-2.11-10.04-6.36-11.11-12.9-1.26-7.74-1.19-15.55-1.11-23.35.11-10.71.67-21.41-.35-32.1-.17-1.79-.39-3.57-.58-5.36ZM617.5,557.82c.23,13,.83,27.1,2.81,41.16.78,5.54,3.58,9.08,8.02,11.49,10.05,5.47,17.25-.11,18.45-9.63.63-5.03.67-10.13.93-15.2.61-11.77,1.55-23.51,3.35-35.16.72-4.68,2.14-9.19,4.77-13.21,2.54-3.9,5.98-6.45,10.82-5.98,4.66.45,7.38,3.54,9.02,7.7,1.68,4.27,2.24,8.76,2.45,13.31.61,12.7.12,25.4.12,38.1,0,4.73.35,9.42.92,14.1.2,1.68.55,3.29,2.15,4.17,6.8,3.74,18.58,2.09,20.66-8.63.62-3.19.93-6.47,1.04-9.73.75-22.15.13-44.25-3.04-66.23-2.49-17.31-16.18-25.64-31.91-25.93-5.64-.11-11.49.05-16.94,2.69-3.07,1.49-6.47,1.28-8.86-1.82-2.1-2.73-4.77-2.89-7.82-2.17-3.61.85-6.77,2.54-9.68,4.76-2.59,1.97-3.92,4.51-4.27,7.83-1.64,15.7-2.81,31.43-2.99,48.39Z"/>
    <path class="cls-3" d="M1018.33,532.85c.46,21.97.98,43.94,1.35,65.91.35,20.32-21.07,33.59-39.2,24.22-2.83-1.46-5.14-1.77-8.13-.8-6.83,2.22-13.68,1.75-20.21-1.21-14.79-6.72-26.35-16.92-31.94-32.5-7.9-22.06-10.19-44.55-2.82-67.31,3.53-10.89,8.92-20.63,18.09-27.93,7.95-6.33,16.74-10.18,27.09-9.37,2.49.19,3.19-.7,3.17-3-.04-4.37-.07-8.76-.97-13.02-1.13-5.36.35-10.1,2.74-14.66,3.53-6.75,9.09-11.29,16.25-13.71,6.36-2.15,12.65-1.53,18.35,2,8.81,5.46,14.63,12.9,14.74,23.85.07,6.35.38,12.71.51,19.06.33,16.16.61,32.32.91,48.48.02,0,.03,0,.05,0ZM1006.6,538.7c-.57-28.06-1.03-50.38-1.48-72.7-.01-.54.01-1.09-.04-1.63-.79-8.64-9.24-15.14-14.99-14.62-6.59.6-12.78,5.88-13.8,12.47-.45,2.91-.28,5.77-.12,8.68.35,6.34.71,12.69.76,19.03.05,6.07-3.05,8.44-8.76,6.36-8.56-3.12-16.04-1-23.12,3.86-7.82,5.36-12.38,13.09-15.52,21.8-7.78,21.59-5.54,42.89,2.4,63.82,4.42,11.64,13.45,19.17,24.58,24.18,5.6,2.52,11.21,2.33,16.68-.92,4.14-2.46,5.95-2.28,8.97,1.38,2.89,3.5,6.43,4.51,10.62,4.15,1.79-.16,3.62-.43,5.33-.95,6.87-2.08,9.47-5.38,9.77-12.63.12-2.88-.36-5.79-.4-8.69-.22-19.78-.15-39.57-.89-53.61Z"/>
    <path class="cls-3" d="M762.58,750.96c1.17,2.09,3.13,3.15,4.87,4.3,23.09,15.32,16.25,47.94-3.47,58.75-5.65,3.1-11.5,5.45-17.88,6.15-13.12,1.44-25.76-.58-37.51-6.6-13.31-6.82-17.77-21.47-11.03-34.81,3.05-6.03,7.72-9.94,14.52-11.08-.55-2.16-2.39-2.9-3.62-4.16-9.29-9.52-14.23-20.88-14.55-34.18-.17-7.33,1.93-14.12,6.52-19.77,9.66-11.91,22.07-19.4,37.52-20.73,20.22-1.75,40.11,13.44,43.67,32.49,2.48,13.3-6.85,26.93-17.43,28.86-.48.09-.91.44-1.6.79ZM740.63,808.89c5.2.36,11.82-1.78,18.05-5.49,12.91-7.69,16.4-29.34,2.52-38.09-10.54-6.64-20.2-14.68-30.21-22.14-1.3-.97-2.36-2.25-3.55-3.35-4.03-3.72-3.08-9.36,1.5-12.56,2.78-1.94,5.86-2.78,9.26-2.45,4.23.41,7.4,2.67,10.28,5.59,2.16,2.19,3.71,4.94,6.26,6.78,4.29,3.09,8.71,2.64,12.04-1.41,3.48-4.23,4.46-9.01,2.82-14.29-3.58-11.48-15.84-20.69-27.87-20.88-11.02-.17-19.93,4.79-27.89,11.78-7.39,6.48-9.45,14.63-7.28,24.15,2.78,12.2,10.33,20.47,20.85,26.54,3.76,2.17,7.49,4.45,11.07,6.9,3.3,2.26,6.27,5,8.24,8.55,3.63,6.5.29,13.08-7.05,14.13-5.66.8-10.33-1.14-14.29-5.09-2.44-2.44-4.87-4.9-8.05-6.4-4.32-2.03-6.8-1.22-9.03,2.84-4.21,7.68-1.66,15.66,6.5,19.56,7.47,3.57,15.44,5.14,25.84,5.33Z"/>
    <path class="cls-3" d="M486.13,745.06c0-22.38-.01-40.71,0-59.04,0-6.54.37-13.06,1.69-19.49.92-4.47,2.3-8.78,4.5-12.79,4.15-7.61,10.42-12.51,18.96-14.18,9.35-1.83,18.8-2.05,28.13-.04,11.2,2.41,19.6,9.24,26.18,18.29,9.61,13.23,12.27,28.02,9.11,43.96-1.2,6.06-2.58,12.09-5.06,17.76-1.03,2.36-.66,3.91,1.02,5.8,25.1,28.28,13.72,70.56-16.08,88.24-15.71,9.32-32.63,12.81-50.69,11.08-10.56-1.01-16.08-6.26-16.31-19.96-.37-21.23-1.79-42.43-1.45-59.62ZM513.51,813.04c10.79.51,20.86-2.24,30.38-7.11,15.13-7.74,25.07-19.57,27.96-36.61,2.58-15.23-1.38-28.37-13.26-38.72-3.58-3.11-4.37-6.05-2.06-10.68,3.44-6.91,5.49-14.22,6.74-21.76,2.11-12.77-.24-24.59-8.41-34.89-4.62-5.82-10.35-10.35-17.64-12.12-7.85-1.9-15.85-1.57-23.76.11-5.16,1.09-8.74,4.19-11,8.9-2.72,5.66-3.91,11.66-4.16,17.89-.85,20.86.21,41.73-.64,62.59-.75,18.33.86,36.65.79,54.98-.02,4.21.53,8.33,1.55,12.38,1.03,4.1,1.64,4.66,5.92,5.01,2.52.2,5.08.04,7.62.04Z"/>
    <path class="cls-3" d="M1185.64,733.72c.45,21.79.93,43.57,1.35,65.36.39,20.51-21.64,33.77-39.7,23.77-2.52-1.39-4.48-1.48-7.08-.6-7.4,2.48-14.7,1.78-21.72-1.56-15.27-7.26-26.6-18.28-31.86-34.65-6.58-20.44-8.73-41.16-2.58-62.15,2.73-9.32,6.65-18.12,13.38-25.29,8.82-9.38,19.27-15.4,32.68-14.45,2.62.19,3.04-.91,3.06-3.11.03-4.38-.21-8.74-1.04-13.01-1.03-5.34.37-10.07,2.8-14.64,9.26-17.4,29.44-19.7,42.54-5.07,4.8,5.36,6.62,11.46,6.76,18.42.43,22.33.96,44.66,1.45,66.99,0,0-.02,0-.03,0ZM1173.92,733.55h.17c-.31-10.35-.7-20.69-.92-31.04-.25-11.8-.39-23.61-.52-35.41-.08-6.74-3.01-11.83-8.64-15.42-2.37-1.51-4.97-2.26-7.78-1.79-7.16,1.2-12.57,7.46-12.76,14.82-.06,2.54.04,5.08.15,7.62.27,5.98.78,11.96.83,17.94.05,5.89-3.31,8.17-8.93,6.25-7.58-2.6-14.51-1.46-21.3,2.7-10.31,6.32-15.37,16.13-18.68,27.15-5.88,19.58-3.58,38.85,2.99,57.73,4.36,12.54,13.62,20.78,25.5,26.17,5.64,2.56,11.21,2.29,16.63-1.05,3.88-2.4,5.86-2.04,8.99,1.49,1.5,1.69,3.06,3.04,5.25,3.65,11.31,3.15,20.48-3.83,20.32-15.48,0-.73-.05-1.45-.06-2.18-.4-21.06-.81-42.12-1.21-63.18Z"/>
    <path class="cls-3" d="M807.24,774c-.28-10.16-.62-20.32-.79-30.48-.04-2.38-1.53-3.05-3.24-3.74-8.51-3.44-13.64-9.96-16.7-18.34-4.93-13.45-.55-25.93,12.39-32.07,5.66-2.69,8.61-5.59,8.01-11.91-.18-1.92.52-3.94.93-5.9,3.27-15.67,15.08-24.43,31.16-23.22,10.31.78,17.19,6.07,21.01,15.58,2.56,6.36,3.06,13.08,3.17,19.79.06,3.61,1.32,5.41,4.72,6.8,17.57,7.21,20.11,27.59,9.99,40.44-3.93,4.98-8.86,8.6-14.88,10.57-2.4.78-3.44,1.85-3.57,4.55-.55,11.42-1.51,22.82-2.09,34.24-.31,6.15-.56,12.36-.12,18.5,1.03,14.49-12.98,24.65-24.93,24.99-10.97.32-19.2-4.36-23.42-13.56-1-2.17-1.6-4.41-1.61-6.83-.03-4.9-.2-9.8-.25-14.7-.05-4.9-.01-9.8-.01-14.71.09,0,.17,0,.26,0ZM851.4,682.54c-.1-1.42-.16-3.79-.46-6.12-.22-1.79-.65-3.57-1.14-5.31-2.17-7.76-5.35-11.48-14.86-10.94-9.62.54-14.59,4.82-16.33,13.58-.99,5.03-1.21,10.04-1.1,15.14.11,5.47-.91,6.5-6.38,7.4-3.87.63-7.28,2.28-10.28,4.69-3.42,2.75-5.39,6.3-5.1,10.87.53,8.26,5.92,15.23,13.79,17.77,1.21.39,2.48.61,3.65,1.08,2.32.93,4.05,2.54,4.39,5.11.54,4.13,1.46,8.31.75,12.44-.87,5.09-.45,10.12-.25,15.18.47,11.94,1.32,23.87-.04,35.83-.79,6.95,5.22,13.72,11.9,13.43,4.23-.18,8.18-1.49,11.51-4.32,3.86-3.28,5.87-7.21,5.11-12.44-.39-2.68-.33-5.42-.44-8.13-.62-15.44,1.58-30.76,2.04-46.16.15-4.95,2.86-8.87,8.22-10.24,3.16-.81,6.21-1.95,8.87-3.98,5.55-4.22,8.08-9.7,6.89-16.63-1.09-6.35-5.67-9.4-11.31-11.23-1.89-.62-3.9-.88-5.78-1.51-3.68-1.24-5.16-3.42-4.26-7.03.63-2.54.58-5.01.62-8.47Z"/>
    <path class="cls-3" d="M873.59,487.35c-1.28-1.77-3.21-2.05-4.72-3.02-11.02-7.08-13.35-20.98-5.17-31.24,7.45-9.34,21.64-12.06,32.04-6.13,13.94,7.94,14.46,26.72,1.02,36.27-2.35,1.67-5.06,2.68-7.68,3.98,1.31,1.92,3.35,1.76,4.97,2.4,10.58,4.17,15,10.69,14.96,22.06-.1,28.48-.67,56.98-.03,85.45.35,15.75-13.99,25.76-26.25,25.07-6.26-.35-12.24-1.59-17.06-6.08-4.78-4.47-7-9.96-7.04-16.49-.17-27.76-.4-55.51-.62-83.27-.02-2,.02-3.99-.06-5.99-.43-11.16,3.61-17.64,13.79-22.08.6-.26,1.18-.6,1.84-.93ZM897.15,554.72h.12c0-15.24-.08-30.49.06-45.73.03-3.5-1.12-5.99-4.17-7.57-4.45-2.31-9.26-3.27-14.2-2.89-6.66.51-9.36,4.43-9.25,10.29.37,19.96.3,39.92.41,59.88.05,10.34.22,20.69.14,31.03-.04,4.5,1.69,7.87,5.67,9.7,4.79,2.21,9.77,2.61,14.69.05,4.34-2.26,6.83-5.16,6.68-10.66-.39-14.69-.13-29.39-.13-44.09ZM881.96,476.13c5.38-.34,9.8-2.31,12.15-7.51,1.46-3.24,1.1-6.52-1.27-9.07-5.33-5.73-15.32-4.96-20.06,1.32-3.45,4.57-2.64,9.92,2,13.24,2.14,1.53,4.56,2.08,7.18,2.02Z"/>
    <path class="cls-3" d="M1040.82,687.65c-1.42-1.84-3.12-2.15-4.48-3.01-11.26-7.17-13.52-21.42-4.98-31.67,7.66-9.19,21.92-11.63,32.19-5.51,13.6,8.11,13.94,26.65.6,35.95-2.34,1.63-4.97,2.85-7.61,4.33,1.94,1.66,4.21,1.77,6.17,2.62,9.42,4.06,13.72,10.51,13.69,20.77-.06,28.7-.56,57.4,0,86.09.32,16.44-14.14,25.5-25.64,25.23-5.87-.14-11.6-1.22-16.39-5.01-5.63-4.46-8.32-10.3-8.36-17.51-.17-27.79-.43-55.57-.65-83.36-.02-2,.02-4-.05-5.99-.36-11.23,3.7-17.7,13.88-22.06.47-.2.92-.48,1.63-.86ZM1037.76,754.08c0,15.44.08,30.87-.05,46.31-.04,4.59,1.93,7.8,5.91,9.5,5.04,2.14,10.17,2.34,15.18-.57,3.93-2.29,5.92-5.15,5.89-10.07-.15-29.24.03-58.47.08-87.71.01-7.57-1.8-9.96-9.16-11.8-2.27-.57-4.64-.96-6.98-1.04-8.25-.28-11.6,3.1-11.58,11.27M1049.03,676.35c3.49.05,7.11-1.24,9.47-3.36,5.53-4.96,4.32-12.91-2.42-15.94-4.96-2.23-11.87-.73-15.39,3.34-4.44,5.15-3.03,11.96,3.08,14.84,1.66.78,3.42,1.11,5.25,1.11Z"/>
    <path class="cls-3" d="M1112.21,570.07c2.3,1.89,4.75,3.12,6.65,5.13,8.61,9.07,9.2,24.05,1.24,34.56-5.29,6.99-12.37,11.22-20.94,12.59-20.29,3.24-38.57-.84-53.91-15.3-6.38-6-12.11-12.5-16.75-19.94-3.81-6.1-6.05-12.69-6.65-19.92-1.82-22.05,5.33-41.32,17.52-59.28,11.26-16.59,27.05-23.44,46.56-22.71,19.15.72,35.54,15.38,38.63,34.33,1.28,7.88,2.55,15.74.98,23.78-1.6,8.17-4.69,15.58-9.97,22.07-1.12,1.38-2.69,2.46-3.35,4.68ZM1087.7,611.48c1.81,0,3.64.13,5.44-.02,6.29-.55,12.11-2.28,16.62-7.05,8.48-8.97,5.33-21.72-6.31-25.55-.69-.23-1.39-.4-2.09-.6-2.75-.82-5.08-2.16-5.58-5.27-.47-2.91,1.39-4.53,3.42-6.28,6.24-5.41,11.37-11.64,13.91-19.73,3.37-10.72,2.06-21.41-1.84-31.4-3.2-8.22-9.56-14.85-18.42-17.37-12.64-3.6-32.05-.22-42.71,14.56-7.31,10.13-12.54,21.04-16.06,33.04-3.37,11.49-2.11,22.16,3.18,32.6,3.57,7.04,8.8,12.78,14.29,18.37,9.97,10.16,22.02,14.94,36.15,14.72Z"/>
    <path class="cls-3" d="M676.71,770.02c.63.59.95,1.04,1.38,1.28,16.29,9.09,15.91,32.98,1.13,44.43-4.68,3.63-9.94,6.02-15.8,6.92-20.81,3.19-39.3-1.37-54.67-16.39-5.47-5.35-10.51-11.03-14.75-17.43-4.95-7.47-7.57-15.66-7.78-24.59-.64-27.01,9.56-49.69,28.69-68.2,6.4-6.2,15.25-8.97,24.29-10.06,1.62-.2,3.26-.24,4.89-.41,19.22-2.02,32.27,7.14,41.61,22.98.73,1.24,1.42,2.58,1.79,3.96,5.29,20.03,5.64,39.23-9.58,55.75-.36.39-.61.9-1.18,1.75ZM652.12,811.77c2,0,4.01.17,5.99-.03,6.29-.64,11.98-2.55,16.52-7.34,6.41-6.77,7.22-21.67-6.37-25.2-1.4-.36-2.83-.75-4.13-1.38-4.26-2.06-4.95-6.39-1.57-9.76,2.18-2.18,4.52-4.21,6.64-6.44,7.39-7.79,10.77-17.13,10.13-27.82-.27-4.52-.58-9.14-1.76-13.47-3.03-11.09-10.1-19.57-21.23-22-15.91-3.47-30.3.52-40.93,13.96-7.88,9.96-13.05,21.18-16.61,33.39-3.77,12.93-1.85,24.73,4.78,36.07,3.51,6.01,8.43,10.86,13.26,15.81,9.72,9.96,21.64,14.23,35.3,14.21Z"/>
    <path class="cls-3" d="M1279.58,770.28c2.32,1.91,4.75,3.17,6.64,5.17,8.54,9.02,9.1,24.2,1.16,34.6-5.19,6.81-12.12,10.99-20.48,12.38-20.5,3.43-38.94-.75-54.42-15.36-7.17-6.77-13.59-14.12-18.3-22.84-2.62-4.84-4.27-9.97-4.73-15.5-2.41-28.75,8-52.73,28.08-72.57,6.2-6.13,14.86-8.92,23.68-10.1,3.05-.41,6.15-.62,9.23-.68,20.67-.43,38.31,14.36,41.59,34.83.8,5.01,1.66,10.04,1.58,15.14-.15,11.05-3.38,21.05-10.3,29.79-1.22,1.54-2.85,2.79-3.73,5.13ZM1255.28,811.78c1.82,0,3.65.15,5.44-.03,6.49-.65,12.41-2.55,16.92-7.68,7.91-8.99,4.81-21.02-6.47-24.81-1.89-.64-3.87-1.09-5.52-2.26-2.79-1.97-3.3-5.45-1.15-8.08.79-.97,1.87-1.71,2.8-2.57,5.9-5.52,11.04-11.53,13.39-19.51,2.55-8.67,1.31-17.27-.18-25.89-.7-4.03-2.31-7.66-4.95-10.76-5.11-6-10.45-11.77-18.97-12.63-16.85-1.69-30.66,3.39-40.69,17.68-6.44,9.18-10.81,19.14-14.2,29.81-4.29,13.53-1.96,25.71,5.14,37.46,3.42,5.65,8.06,10.24,12.64,14.92,9.85,10.07,21.91,14.49,35.81,14.33Z"/>
    <polygon class="cls-1" points="794.15 558.62 794.03 558.48 794.18 558.6 794.15 558.62"/>
    <path class="cls-3" d="M978.11,556.29c0,4.89-.32,9.81.07,14.67.78,9.97-8.61,12.79-15.14,10.52-5.73-1.99-9.18-6.26-11.24-11.78-2.74-7.33-2.74-14.91-1.7-22.52.54-3.96,1.54-7.82,3.49-11.37,2.11-3.83,5.16-6.44,9.46-7.59,7.63-2.03,13.53,1.75,14.35,9.59.47,4.49.37,9.05.5,13.57.05,1.63,0,3.26,0,4.89h.19ZM966.57,539.78c-4.14,3.17-6.13,10.82-5.36,19.2.58,6.26,1.85,8.79,5.36,10.58v-29.78Z"/>
    <path class="cls-3" d="M518.77,768.72c.43-4.08.82-10.06,1.75-15.95,1.13-7.15,4.57-9.44,11.78-8.76,8.9.84,19.12,11.32,12.6,23.49-3.04,5.68-7.86,9.41-13.65,11.92-8.27,3.58-13.01.21-12.48-10.7ZM530.21,766.87c4.2-3.47,5.6-5.45,5.14-7.4-.49-2.06-1.75-3.43-4.4-3.59-.3,3.52-1.03,6.79-.74,10.99Z"/>
    <path class="cls-3" d="M521.47,698.39c0-3.26-.26-6.54.05-9.76.83-8.67,6.48-11.95,14.54-8.65,6.8,2.79,10.06,8.2,9.06,15.51-1.02,7.45-4.83,13.14-11.4,16.89-1.91,1.09-3.98,1.7-6.23,1.61-3.91-.15-6.04-1.96-6.55-5.84-.21-1.6-.13-3.25-.1-4.88.03-1.63.16-3.25.25-4.88.13,0,.26,0,.38,0ZM532.21,697.43q1.76-3.47.28-5.65c-1.03,1.86-.36,3.82-.28,5.65Z"/>
    <path class="cls-3" d="M1145.61,759.27c0,3.99.02,7.99,0,11.98-.04,8.85-7.28,13.65-15.61,10.35-4.81-1.91-8.35-5.33-10.12-10.09-4.36-11.72-4.13-23.46.94-34.94,2.41-5.45,6.85-8.32,12.84-8.58,6.08-.27,10.32,3.5,11.03,9.55.84,7.23.91,14.48.93,21.74ZM1133.87,769.8v-29.66c-3.77,2.93-5.24,7.37-5.27,15.37-.02,5.36.29,10.65,5.27,14.29Z"/>
    <path class="cls-3" d="M1080.48,517.8c6.21-.14,10.42,2.29,12.85,7.33,2.44,5.06,1.72,9.98-2.02,14.15-6.05,6.77-13.69,10.71-22.79,11.19-8.37.44-13.1-6.6-9.64-14.2,2.5-5.5,6.21-10.25,10.73-14.21,3.17-2.78,6.99-4.55,10.87-4.26ZM1070.38,538.26c5.2-.87,8.82-2.96,11.89-6.14.52-.54.81-1.24.53-1.97-.39-1-1.31-1.13-2.24-1.13-1.52,0-2.8.67-3.94,1.61-2.36,1.95-4.32,4.23-6.24,7.63Z"/>
    <path class="cls-3" d="M645.36,718.11c6.15-.11,10.28,2.46,12.67,7.52,2.42,5.14,1.39,9.95-2.33,14.12-5.82,6.53-13.29,10.08-21.87,11-8.52.92-13.87-6.57-10.28-14.25,2.64-5.64,6.45-10.53,11.22-14.56,3.16-2.66,6.86-4.04,10.59-3.83ZM634.96,738.49c5.52-.89,9.09-3.05,12.01-6.3,1.2-1.34.41-2.81-1.4-2.96-1.73-.14-3.16.6-4.42,1.65-2.22,1.84-3.99,4.06-6.18,7.61Z"/>
    <path class="cls-3" d="M1236.15,750.87c-8.28.05-13.01-6.62-10.04-13.68,2.7-6.43,6.97-11.82,12.52-16.07,3.81-2.91,8.28-3.57,12.89-2.79,9.26,1.55,13.7,12.63,7.89,20.2-5.95,7.74-14.31,11.31-23.26,12.34ZM1238.01,738.47c5.16-.84,8.67-3.07,11.73-6.16.52-.52.8-1.23.48-1.96-.42-.96-1.34-1.17-2.25-1.15-1.29.02-2.48.46-3.5,1.26-2.53,1.99-4.67,4.3-6.46,8.01Z"/>
  </g>
  <g id="Layer_9">
    <path class="cls-2" d="M437.52,613.42c-16.99-.7-31.23-6.91-41.22-21.36-.82-1.19-1.54-2.46-2.21-3.75-5.14-9.91-3.07-20.06,5.52-27.3,5.17-4.36,9.5-4.58,14.63-.2,3.57,3.06,6.78,6.56,10.07,9.93,2.43,2.49,5.04,4.75,8.19,6.23,3.76,1.76,7.72,2.41,11.4-.11,3.71-2.54,4.34-6.42,4.03-10.61-.46-6.28-3.6-10.76-8.76-14.24-13.72-9.25-24.8-21.1-33.93-34.86-2.55-3.84-4.1-8.06-5.37-12.43-.84-2.9-.41-5.01,2.32-7.01,6.42-4.72,12.59-9.79,17.41-16.29,3.07-4.13,7.22-7.15,11.45-9.96,6.58-4.37,12.07-9.88,16.98-15.97,1.7-2.11,3.35-2.99,6.04-2.27,9.63,2.58,17.67,7.45,23.22,15.92,5.83,8.89,3.65,19.63-4.81,26.05-4.36,3.31-13.04,3.86-17.22,0-2.78-2.57-6.01-4.65-8.24-7.84-.82-1.17-1.86-2.28-3.03-3.1-3.61-2.53-7.57-3.74-11.76-1.6-4.18,2.14-5.64,5.91-5.44,10.45.24,5.36,2.74,9.68,6.25,13.53,3.7,4.05,8.32,7,12.48,10.5,6.79,5.72,13.89,11.12,19.04,18.53,4.58,6.6,8.14,13.7,10.67,21.33,2.43,7.32,2.17,14.64.17,21.96-1.34,4.9-3.09,9.66-5.21,14.3-6.39,13.99-17.5,20.19-32.68,20.16Z"/>
    <path class="cls-1" d="M363.19,506.5c-3.86.16-7.62-.38-11.2-1.83-6.71-2.71-8.69-7.15-6.33-13.9,1.65-4.73,4.55-8.11,9.48-9.74,6.2-2.05,12.48-4.04,16.9-9.38.51-.61,1.56-.92,2.42-1.08,6.39-1.22,11.94-4.3,17.18-7.94,8.07-5.61,15.62-11.85,21.75-19.62,2.49-3.15,4.62-6.55,5.75-10.44.79-2.73,2.35-4.82,4.46-6.67,2.59-2.27,5.08-4.67,7.5-7.12,6.5-6.59,14.47-10.93,22.77-14.66,5.23-2.36,12.54,3.07,11.84,8.8-1.12,9.16-4.05,17.64-10.61,24.55-4,4.21-7.98,8.46-11.6,12.99-5.28,6.6-11.49,12.13-18.43,16.83-4.12,2.79-7.69,6.02-10.79,9.87-10.19,12.64-23.39,21.03-38.33,26.91-4.08,1.61-8.31,2.63-12.75,2.43Z"/>
    <path class="cls-1" d="M363.6,469.53c-2.64,2.34-5.6,3.28-8.5,4.14-11.2,3.3-16.58,11.09-17.45,22.35-.17,2.16-.75,3.38-3.01,3.66-4.73.59-9.09,2.44-13.53,4.03-6.95,2.48-14.17,3.02-21.47,2.5-1.61-.11-3.24-.48-4.77-1.01-3.65-1.25-4.58-2.81-3.85-6.6.41-2.13,1.01-4.25,1.77-6.28,2.58-6.9,3.65-14.01,3.28-21.36-.11-2.17-.02-4.36.06-6.53.74-18.99,14.5-37.85,42.23-34.39,8.54,1.06,16.37,4.69,23.47,9.62,3.13,2.18,3.09,2.46,1.07,5.63-.39.61-.86,1.17-1.25,1.78-5.52,8.53-5.09,14.62,1.96,22.48Z"/>
    <path class="cls-1" d="M420.8,418.83c-2.52-2.78-4.98-5.41-8.95-5.74-1.48-.12-1.74-1.72-2.1-2.91-4.28-14.25-4.15-27.76,5.3-40.38,7.3-9.74,15.53-18.2,26.44-23.81,11.7-6.01,27.41-1.77,34.63,9.31,2.47,3.79,2.48,7.93,1.64,12.09-1.95,9.69-7.16,17.35-15.09,23.15-4.99,3.65-10.39,6.66-15.95,9.36-8.9,4.32-17.08,9.59-23.69,17.07-.58.66-1.37,1.14-2.24,1.86Z"/>
    <path class="cls-1" d="M343.86,416.2c.5-17.32,11.31-31.85,27.79-37.11,9.23-2.95,18.74-4.19,28.43-3.89,3.2.1,3.61.63,2.58,3.6-3.29,9.47-2.52,18.92-.24,28.41,1.67,6.96,1.46,5.67-4.18,8.32-9.95,4.66-18.94,10.65-26.3,18.93-2.51,2.83-2.65,2.81-5.7.53-4.69-3.5-9.87-6.08-15.27-8.25-6.03-2.42-7.29-4.3-7.11-10.55Z"/>
    <path class="cls-2" d="M413.84,425.3c-.51,5.51-2.93,10.16-6.28,14.27-7.54,9.23-16.69,16.53-27.31,21.95-2.42,1.24-4.96,2.21-7.73,2.38-6.63.4-9.53-3.47-7.04-9.58,1.02-2.51,2.2-4.98,3.93-7.11,8.28-10.21,17.66-19.08,29.54-25.13,4.01-2.04,8.06-1.79,12.16-1.65,3.12.1,2.72,2.77,2.74,4.87Z"/>
    <path class="cls-2" d="M970.19,812.73c-16.46-.78-31-6.87-41.07-21.56-5.29-7.71-7.23-15.79-2.07-24.45,1.7-2.86,3.96-5.21,6.52-7.25,4.34-3.46,8.64-3.59,12.87,0,3.59,3.04,6.83,6.51,10.13,9.88,2.82,2.88,5.89,5.38,9.55,7.12,2.37,1.13,4.86,1.55,7.43,1.07,4.62-.86,7.68-5.14,7.47-10.6-.24-6.35-2.66-11.55-8.13-15.2-13-8.66-23.68-19.72-32.7-32.4-8.6-12.08-11.17-25.54-7.65-39.84,2.07-8.43,6.94-15.56,13.37-21.44,3.83-3.5,8.42-5.76,13.54-6.58,11.29-1.79,22.43-1.17,33.24,2.83,7.77,2.87,13.87,7.86,18.08,14.99,5.63,9.52,2.44,20.91-7.3,26.14-5.03,2.7-10,2.8-14.76-.8-3.18-2.41-6.48-4.67-8.77-8.06-.7-1.04-1.62-2-2.62-2.75-3.69-2.76-7.73-4.24-12.16-1.91-4.38,2.31-5.84,6.32-5.38,11.02.54,5.46,2.93,10.16,7.04,13.73,5.89,5.11,12.05,9.91,18.04,14.9,12.4,10.32,20.62,23.26,24.38,38.99.47,1.97.74,3.93.66,5.93-.52,12.88-4.46,24.74-12.32,34.85-6.55,8.43-16.1,11.35-27.39,11.38Z"/>
    <path class="cls-2" d="M802.49,450.38c10.88.21,20.39,1.34,28.87,6.62,6.99,4.35,12.53,10.02,14.45,18.31,2.7,11.66-8.42,23.91-19.24,21.49-5.37-1.2-9.05-5.09-12.73-8.83-1.4-1.42-2.51-3.14-4.01-4.42-3.75-3.2-9.07-3.75-12.65-1.52-3.74,2.33-5.67,7.11-4.71,11.91,1.27,6.36,4.82,11.28,9.83,15.22,6.28,4.94,12.54,9.88,18.48,15.23,7,6.3,12.18,13.83,16.38,22.2,5.85,11.65,6.85,23.55,2.53,35.87-1.56,4.46-3.3,8.84-5.57,13-5.81,10.64-14.99,16.1-26.88,16.73-15.81.84-29.71-3.83-40.93-15.4-2.81-2.9-4.99-6.22-6.8-9.8-4.93-9.77-2.85-19.94,5.5-26.98,5.14-4.33,9.43-4.43,14.69-.35,2.59,2.01,4.93,4.27,7.03,6.8,2.69,3.22,5.68,6.13,9.29,8.32,2.18,1.32,4.46,2.39,7.1,2.55,5.74.34,9.53-2.45,10.27-8.15.95-7.27-1.42-13.4-7.68-17.41-5.86-3.75-10.92-8.39-16.02-13.03-7.3-6.64-13.74-14.11-18.75-22.54-11.76-19.78-9.99-42.36,8.15-58.79,4.49-4.06,10-5.82,15.85-6.55,2.87-.36,5.79-.35,7.54-.45Z"/>
    <path class="cls-2" d="M536.23,531.98c-.39,9.61-.86,19.24.57,28.81.54,3.6,1.05,7.2,2.73,10.48,3.39,6.65,10.82,7.42,15.57,1.65,2.38-2.89,3.56-6.36,4.23-9.92.73-3.91,1.42-7.84,1.43-11.87.03-11.25.13-22.51.28-33.76.04-3.08.26-6.16.59-9.22.67-6.2,6.97-12.62,13.13-13.53,5.2-.77,11.25,2.73,13.07,7.74,1.49,4.12,2.15,8.45,2.35,12.8.41,8.88.89,17.77.9,26.65.01,7.06-.42,14.15-1.03,21.19-.85,9.79-.52,19.59-.76,29.38-.03,1.45-.06,2.9-.12,4.35-.43,9.99-5.29,14.16-15.22,17.25-2.87.89-5.97.29-8.15-1.91-4.18-4.23-8.8-3.66-13.55-1.61-7.29,3.14-14.74,3.5-22.36,1.69-8.84-2.09-15.24-7.19-19.24-15.42-3.87-7.97-5.48-16.47-6.49-25.15-1.67-14.47-1.54-29-.91-43.49.3-6.84.89-13.72,1.5-20.56.66-7.55,10.65-14.05,18.02-13.36,7,.66,13.09,7.28,13.4,15.49.29,7.43.06,14.88.06,22.32Z"/>
    <path class="cls-2" d="M678.64,574.88c-.24-9.97.71-19.97-1.01-29.9-.47-2.73-1.21-5.31-2.57-7.69-3.62-6.36-10.93-7.23-15.95-1.84-3.06,3.28-4.56,7.37-5.61,11.65-1.86,7.61-2.23,15.42-3.07,23.16-.99,9.03-1.13,18.11-1.48,27.18-.2,5.05-1.35,9.67-5.29,13.26-1.7,1.55-3.5,2.39-5.83,2.5-8.82.39-15.73-5.7-17.14-14.65-2.44-15.48-3.1-31.07-2.82-46.68.26-14.33,1.35-28.64,3.01-42.89.36-3.11,1.69-5.48,3.99-7.45,2.66-2.28,5.69-3.91,9.01-4.95,3.84-1.21,7.39-1.38,10.26,2.39,1.9,2.49,4.94,2.61,7.48,1.36,5.07-2.49,10.49-2.52,15.85-2.8,14.57-.74,31.65,7.71,34.24,26.7,3.02,22.21,3.56,44.48,2.94,66.83-.09,3.25-.5,6.52-1.12,9.72-1.74,9.06-14.71,13.9-21.92,8.3-1.6-1.25-1.81-2.99-2.13-4.81-1.29-7.4-.73-14.85-.84-22.28-.03-2.36,0-4.72,0-7.08Z"/>
    <path class="cls-2" d="M977.3,482.3c-.06-5.28-.97-10.5-1.04-15.76-.06-4.63.67-8.97,4.32-12.43,9.52-9,19.67-4.87,24.59,4.65,1.16,2.25,1.57,4.75,1.62,7.37.35,20.86.6,41.73,1.26,62.58.66,20.86.77,41.72,1.14,62.59.06,3.26.62,6.53.44,9.77-.6,10.68-13.01,17.79-22.82,13.26-1.9-.88-3.09-2.43-4.48-3.87-2.56-2.65-4.1-3.06-7.21-1.13-7.83,4.85-15.27,3.28-22.59-.97-11.68-6.78-19.45-16.62-23.03-29.73-2.4-8.78-3.95-17.74-4.35-26.79-.6-13.65,2.22-26.71,8.71-38.82,4.15-7.75,10.18-13.59,18.43-16.97,5.43-2.22,10.86-2.42,16.46-.56,6.2,2.06,8.52.31,8.55-6.11,0-2.36,0-4.71,0-7.07ZM978.43,556.48c-.23-6.52.11-13.08-.87-19.55-.93-6.11-5.76-9.37-11.77-8.34-4.8.82-8.3,3.39-10.63,7.65-2.03,3.73-3.01,7.79-3.52,11.93-1,8.01-.79,15.93,2.72,23.44,2.1,4.48,5.37,7.73,10.09,9.35,6.82,2.33,14.94-1.53,14.07-9.81-.51-4.84-.09-9.79-.09-14.68Z"/>
    <path class="cls-2" d="M736.83,809.47c-5.82-.11-13.99-1.67-21.59-5.41-8.45-4.16-11.01-12.69-6.42-20.62,2.26-3.91,4.98-4.87,9.14-3.04,3.38,1.49,6.04,4,8.63,6.55,3.68,3.61,7.92,5.61,13.23,5.15,7.52-.66,11.05-7.29,7.02-13.7-2.76-4.39-6.87-7.44-11.16-10.22-4.87-3.16-10.05-5.79-14.71-9.31-8.99-6.79-13.42-16.03-14.89-26.86-.76-5.61.55-11.02,4.14-15.39,8.32-10.12,18.81-16.53,32.26-16.62,12.49-.08,24.96,9.45,28.78,21.35,1.77,5.52.64,10.41-2.89,14.8-3.49,4.34-8.47,4.86-13.04,1.63-1.67-1.18-2.8-2.82-4.11-4.33-2.26-2.61-4.53-5.21-7.77-6.71-4.86-2.26-10.58-1.47-14.24,2-3.26,3.09-3.59,6.69-.73,10.1,1.27,1.52,2.73,2.93,4.32,4.11,9.87,7.38,19.46,15.19,29.78,21.88,14.44,9.36,10.6,31.18-2.41,39.1-6.37,3.88-12.5,5.64-23.35,5.54Z"/>
    <path class="cls-2" d="M514.93,813.67c-2.9,0-5.8.02-8.7,0-3.17-.03-5.12-1.58-5.71-4.72-.6-3.2-1.61-6.41-1.62-9.62-.11-21.59-1.78-43.17-.94-64.76.51-13.25.53-26.48.28-39.72-.17-8.71.06-17.39,1.57-26,.47-2.7,1.43-5.23,2.48-7.75,2.78-6.68,7.81-10.18,14.94-11,5.05-.58,10.05-.99,15.17-.51,14.17,1.32,23.07,9.65,29.16,21.62,4.53,8.92,4.88,18.48,3.17,28.16-1.23,6.99-3.12,13.77-6.25,20.2-2.61,5.38-1.83,7.32,2.57,11.31,8,7.26,12.68,16.44,13.08,27.22.84,22.47-9.57,38.53-29.34,48.66-9.33,4.78-19.25,7.51-29.85,6.9ZM520.47,768.47c-.39,10.83,3.86,13.73,11.59,10.35,5.61-2.45,10.33-6.06,13.22-11.61,5.39-10.34-1.73-22.21-13.41-22.47-6.05-.14-8.43,1.44-9.43,7.36-1.06,6.23-1.53,12.57-1.97,16.37ZM522.61,699.35c0,2.32-.17,5.41.04,8.47.27,3.78,2.27,5.44,6.02,5.53,2.06.05,3.94-.56,5.7-1.55,6.46-3.63,10.12-9.23,11.08-16.48.97-7.33-3.05-13.22-10.11-15.27-6.66-1.94-10.68.34-11.86,7.17-.64,3.72-.57,7.57-.88,12.12Z"/>
    <path class="cls-2" d="M1175.94,754.72c.86,14.56.48,28.91.89,43.24.01.36.01.73.02,1.09.06,11.59-7.37,18.07-18.96,16.47-2.94-.41-5.45-1.55-7.51-3.93-3.34-3.87-4.48-4-8.8-1.47-5.45,3.19-11.1,3.4-16.7.89-12.26-5.5-21.75-14.05-26.17-26.96-6.53-19.08-8.71-38.54-2.72-58.27,3.41-11.22,8.75-21.05,19.27-27.35,6.82-4.09,13.81-5.06,21.35-2.51,5.4,1.83,8.34-.34,8.2-6.27-.17-7.25-.71-14.49-.98-21.74-.1-2.71-.33-5.47.55-8.11,3.46-10.39,16.34-13.66,24.24-6.16,3.59,3.41,5.46,7.62,5.67,12.56.04.91.01,1.82.03,2.72.54,28.67,1.08,57.35,1.62,85.78ZM1145.99,759.43c-.12-7.05-.18-14.1-.9-21.13-.66-6.43-4.81-10.17-11.25-9.56-5.31.5-9.26,3.24-11.39,8.07-5.05,11.45-5.33,23.15-.8,34.8,1.85,4.76,5.51,8.04,10.4,9.7,7.54,2.56,13.88-1.99,13.94-9.93.03-3.98,0-7.96,0-11.94Z"/>
    <path class="cls-2" d="M852.96,683.16c-.01,2.7.2,5.37-.5,8.1-.82,3.17.5,5.03,3.8,6.15,2.06.7,4.25.99,6.3,1.71,5.8,2.03,10.33,5.37,11.31,11.97,1.02,6.93-1.49,12.42-6.93,16.71-2.78,2.19-5.99,3.37-9.34,4.26-4.85,1.28-7.64,4.85-7.75,9.39-.39,15.6-2.69,31.11-2.04,46.74.11,2.53.14,5.09.51,7.59.76,5.16-1.1,9.21-4.82,12.64-3.51,3.23-7.78,4.73-12.38,5-7.2.43-13.71-7.07-12.72-14.54,1.46-11.05.56-22.1.21-33.15-.19-5.98-.78-11.92.15-17.91.59-3.79-.41-7.59-.7-11.38-.22-2.82-2.14-4.5-4.78-5.33-1.56-.49-3.17-.82-4.69-1.39-7.16-2.7-12.98-11.79-12.44-19.42.32-4.46,2.57-7.85,6.15-10.42,2.99-2.15,6.25-3.62,9.93-4.21,4.9-.79,5.87-1.79,5.73-6.76-.14-4.92.19-9.72.93-14.61,2.18-14.4,14.26-15.92,23.7-14.27,3.59.63,5.93,3.32,7.38,6.69,2.26,5.26,3.18,10.76,3.01,16.47Z"/>
    <path class="cls-2" d="M870.16,553.99c0-15.05.22-30.11-.1-45.16-.13-6.32,2.86-10.42,9.95-10.99,5.12-.42,10.11.69,14.69,3.14,3.23,1.72,4.29,4.46,4.26,8.11-.14,16.14-.07,32.28-.09,48.43-.02,13.78-.31,27.58.05,41.35.15,5.64-2.33,8.76-6.86,11.15-5.08,2.67-10.2,2.4-15.19.14-4.35-1.97-6.36-5.55-6.32-10.47.11-15.23.04-30.47.04-45.71-.14,0-.28,0-.42,0Z"/>
    <path class="cls-2" d="M884.98,455.11c5.43.15,10.12,3.41,11.18,7.77,1.19,4.89-1.4,9.82-6.58,12.41-3.19,1.6-6.62,2.07-10.06,1.25-4.13-.99-7.2-3.46-8.27-7.76-.98-3.9.61-7.12,3.36-9.75,2.86-2.75,6.35-4.1,10.37-3.92Z"/>
    <path class="cls-2" d="M1066.34,755.01c0,14.52,0,29.05,0,43.57,0,8.13-6.47,14.17-14.69,13.64-1.98-.13-3.97-.54-5.87-1.1-4.88-1.43-7.58-5.18-7.62-10.56-.09-14.7-.06-29.41-.2-44.11-.14-15.42-.46-30.85-.64-46.27-.1-8.65,3.53-12.2,12.17-12.13,3.31.03,6.51.64,9.59,1.78,5.84,2.18,7.35,4.36,7.36,10.53.02,14.89,0,29.77,0,44.66h-.1Z"/>
    <path class="cls-2" d="M1051.77,655.47c5.95.05,10.6,3.16,11.55,7.57,1.22,5.63-1.64,10.67-7.41,12.95-3.31,1.31-6.66,1.65-10.1.42-3.89-1.39-6.59-3.99-7.34-8.05-.73-3.91,1.14-7.12,4.01-9.61,2.69-2.33,5.92-3.49,9.3-3.29Z"/>
    <path class="cls-2" d="M1089.02,612.03c-18.82,1.05-32.48-8.33-43.85-22.1-5.6-6.79-9.87-14.24-11.77-23.02-1.18-5.45-1.41-10.95-.23-16.18,3.16-14.11,8.71-27.24,17.8-38.74,10.57-13.37,24.65-17.38,40.75-14.89,10.61,1.64,17.54,9.3,21.27,18.52,3.86,9.55,5.07,19.96,2.11,30.39-2.48,8.75-7.82,15.45-14.46,21.29-4.93,4.33-4.32,8.02,1.82,10.27.85.31,1.73.53,2.59.82,11.41,3.85,14.81,16.67,6.82,25.87-4.29,4.94-10.01,7.05-16.32,7.73-2.15.23-4.35.04-6.53.04ZM1070.46,549.92c8.19-.99,16.28-4.55,22.19-12.18,2.95-3.81,3.08-8.12,1.07-12.33-2.02-4.23-5.55-6.54-10.3-6.97-4.62-.42-8.72,1.06-12.1,3.96-4.71,4.05-8.57,8.93-11.02,14.68-2.86,6.7,1.52,12.84,10.16,12.85Z"/>
    <path class="cls-2" d="M653.45,812.43c-14.07.18-26.29-4.27-36.26-14.5-4.7-4.82-9.45-9.55-12.93-15.37-6.93-11.61-9.06-23.71-5.14-37.03,3.58-12.2,8.77-23.4,16.58-33.41,10.81-13.87,25.56-17.95,41.82-14.41,11.5,2.5,18.73,11.33,21.8,22.86,1.02,3.82,1.29,7.88,1.62,11.85.97,11.69-2.59,21.83-10.77,30.28-2.02,2.08-4.23,3.98-6.25,6.06-2.88,2.96-2.28,6.59,1.4,8.45,1.28.65,2.7,1.09,4.11,1.42,13.23,3.07,14.2,18.43,6.53,26.42-4.55,4.74-10.22,6.73-16.51,7.35-1.98.2-3.99.03-5.98.03ZM634.28,750.24c7.48-.92,14.61-3.65,20.41-9.35,5.09-5,6.25-10.3,3.4-15.62-2.79-5.2-8.39-7.58-14.87-6.25-2.34.48-4.48,1.49-6.34,2.97-5.18,4.13-9.17,9.28-11.91,15.26-2.98,6.5,1.62,13.04,9.31,12.99Z"/>
    <path class="cls-2" d="M1256.11,812.44c-14.1.23-26.26-4.4-36.24-14.58-4.58-4.68-9.18-9.3-12.62-14.93-7.27-11.91-9.47-24.33-5.21-37.99,3.38-10.86,7.88-20.97,14.48-30.28,10.35-14.61,24.59-19.59,41.78-17.62,8.46.97,13.77,6.85,18.82,12.88,1.49,1.78,2.99,3.85,3.62,6.03,5.19,18.11,5.21,35.24-10.15,49.14-1.48,1.34-3.03,2.62-4.36,4.1-2.26,2.53-1.86,5.6,1.03,7.39,1.52.94,3.27,1.6,5.01,2.05,14.09,3.63,13.25,19.1,6.74,26.08-4.63,4.96-10.42,7.06-16.92,7.69-1.98.19-3.99.03-5.98.03ZM1248.51,718.74c-2.92-.21-6.26,1.13-9.14,3.46-4.99,4.05-8.91,9.04-11.52,14.89-3.12,6.99,1.98,13.94,9.63,13.05,8.34-.97,15.67-4.33,21.36-10.69,3.56-3.99,4.66-8.55,2.34-13.55-2.3-4.96-6.38-7.16-12.67-7.17Z"/>
  </g>
</svg>